<svg width="54" height="46" viewBox="0 0 54 46" fill="none" xmlns="http://www.w3.org/2000/svg">
<g filter="url(#filter0_f_4_156)">
<g clip-path="url(#paint0_angular_4_156_clip_path)" data-figma-skip-parse="true"><g transform="matrix(0.0185753 0.0192329 -0.0232066 0.0224132 29.0959 20.5479)"><foreignObject x="-1204.4" y="-1204.4" width="2408.8" height="2408.8"><div xmlns="http://www.w3.org/1999/xhtml" style="background:conic-gradient(from 90deg,rgba(0, 0, 0, 1) 0deg,rgba(102, 102, 102, 1) 360deg);height:100%;width:100%;opacity:0.89"></div></foreignObject></g></g><path d="M6.90411 14.7945C8.87671 9.53425 2.63013 2.63014 2.63013 2.63014L47.0137 28.6027C47.0137 28.6027 45.8285 31.1548 46.3562 33.2055C47.2176 36.5535 50.6301 42.411 50.6301 42.411C50.6301 42.411 16.1096 21.3699 6.90411 14.7945Z" data-figma-gradient-fill="{&#34;type&#34;:&#34;GRADIENT_ANGULAR&#34;,&#34;stops&#34;:[{&#34;color&#34;:{&#34;r&#34;:0.0,&#34;g&#34;:0.0,&#34;b&#34;:0.0,&#34;a&#34;:1.0},&#34;position&#34;:0.0},{&#34;color&#34;:{&#34;r&#34;:0.40000000596046448,&#34;g&#34;:0.40000000596046448,&#34;b&#34;:0.40000000596046448,&#34;a&#34;:1.0},&#34;position&#34;:1.0}],&#34;stopsVar&#34;:[{&#34;color&#34;:{&#34;r&#34;:0.0,&#34;g&#34;:0.0,&#34;b&#34;:0.0,&#34;a&#34;:1.0},&#34;position&#34;:0.0},{&#34;color&#34;:{&#34;r&#34;:0.40000000596046448,&#34;g&#34;:0.40000000596046448,&#34;b&#34;:0.40000000596046448,&#34;a&#34;:1.0},&#34;position&#34;:1.0}],&#34;transform&#34;:{&#34;m00&#34;:37.150680541992188,&#34;m01&#34;:-46.413223266601562,&#34;m02&#34;:33.727157592773438,&#34;m10&#34;:38.465755462646484,&#34;m11&#34;:44.826446533203125,&#34;m12&#34;:-21.098152160644531},&#34;opacity&#34;:0.88999998569488525,&#34;blendMode&#34;:&#34;NORMAL&#34;,&#34;visible&#34;:true}"/>
</g>
<path fill-rule="evenodd" clip-rule="evenodd" d="M44.1714 11.4571C44.7285 12.2326 45.0175 13.0581 45.0175 13.9116C45.0175 16.1028 43.113 18.1089 39.6552 19.5601C36.3911 20.93 32.0667 21.6845 27.4782 21.6845C22.8896 21.6845 18.5649 20.93 15.3012 19.5601C13.8157 18.9367 12.617 18.211 11.7327 17.4121C11.4515 17.8728 11.3097 18.339 11.3097 18.8058C11.3097 19.5652 11.685 20.323 12.4249 21.0581C13.1983 21.8264 14.3701 22.5529 15.8138 23.1595C17.3133 23.7896 19.0651 24.2852 21.0204 24.6327C23.057 24.9945 25.2219 25.1782 27.4551 25.1782C28.4787 25.1782 29.5032 25.1386 30.5004 25.0608C31.3249 24.9963 32.1434 24.9045 32.9334 24.7881L33.1336 26.1797C32.3129 26.3007 31.463 26.3961 30.6073 26.4628C29.5747 26.5435 28.5141 26.5845 27.4549 26.5845C22.8675 26.5845 18.5441 25.8293 15.2808 24.4582C11.8241 23.0058 9.92024 20.9986 9.92024 18.8058C9.92024 17.9499 10.2104 17.1222 10.7697 16.3448C10.2225 15.5755 9.93887 14.7573 9.93887 13.9116C9.93887 11.7203 11.8433 9.71406 15.3012 8.26289C18.5652 6.89298 22.8896 6.13852 27.4782 6.13852C32.0667 6.13852 36.3914 6.89298 39.6552 8.26289C41.1297 8.88172 42.3218 9.60148 43.2041 10.3935C43.4796 9.93736 43.6185 9.47594 43.6185 9.01391C43.6185 8.25458 43.2433 7.49687 42.5033 6.76181C41.7299 5.99344 40.5582 5.26697 39.1145 4.66024C37.6148 4.03027 35.863 3.53455 33.9078 3.18715C31.8713 2.82525 29.7064 2.64171 27.4732 2.64171C26.4495 2.64171 25.425 2.68108 24.4278 2.75908C23.6033 2.82347 22.7848 2.91525 21.9948 3.03174L21.7946 1.64018C22.6154 1.5191 23.4654 1.42379 24.3209 1.35701C25.3536 1.27634 26.4143 1.23534 27.4733 1.23534C32.0607 1.23534 36.3842 1.99036 39.6474 3.36137C43.1044 4.81388 45.0082 6.82116 45.0082 9.01376C45.0082 9.86319 44.7225 10.6848 44.1714 11.4571ZM27.4732 16.7923V15.3861C29.7064 15.3861 31.8715 15.2026 33.9078 14.8407C35.863 14.4933 37.6148 13.9976 39.1145 13.3676C40.436 12.8124 41.5299 12.1563 42.2989 11.4598C41.5303 10.767 40.4397 10.1146 39.123 9.56205C37.6229 8.93238 35.8705 8.43711 33.9149 8.08985C31.8776 7.7281 29.712 7.5447 27.4782 7.5447C25.2442 7.5447 23.0787 7.7281 21.0415 8.08985C19.0857 8.43711 17.3333 8.93238 15.8333 9.56205C14.3895 10.168 13.2173 10.8941 12.4436 11.6618C11.7034 12.3962 11.3281 13.1531 11.3281 13.9117C11.3281 14.3705 11.4654 14.8286 11.7376 15.2816C12.6192 14.4906 13.8094 13.7718 15.281 13.1534C18.5442 11.7825 22.8676 11.0274 27.4551 11.0274V12.4336C25.2219 12.4336 23.057 12.6172 21.0204 12.9791C19.0651 13.3266 17.3133 13.8222 15.8138 14.4523C14.4991 15.0046 13.4097 15.6567 12.6414 16.3491C13.4109 17.0472 14.5074 17.705 15.8333 18.2614C17.3333 18.8911 19.0857 19.3863 21.0415 19.7336C23.0787 20.0954 25.2444 20.2787 27.4782 20.2787C29.712 20.2787 31.8776 20.0954 33.9149 19.7336C35.8705 19.3863 37.6229 18.8911 39.123 18.2614C40.5668 17.6554 41.7391 16.9292 42.5127 16.1616C43.253 15.4273 43.6282 14.6703 43.6282 13.9117C43.6282 13.4466 43.4872 12.9822 43.2074 12.5232C42.3241 13.3199 41.1283 14.0439 39.6474 14.6662C36.3842 16.0371 32.0605 16.7923 27.4732 16.7923Z" fill="#181818"/>
<path d="M26.344 8.46123V26.7061C26.344 27.1451 26.3178 27.5579 26.2916 27.9707C26.2661 28.3267 26.2147 28.6803 26.1378 29.0288C25.9832 29.8552 25.7508 30.6554 25.4416 31.4031C25.2529 31.871 25.0377 32.3276 24.7969 32.7708C24.0778 34.0556 23.1549 35.2149 22.0643 36.2033C19.7486 38.2838 16.7457 39.4329 13.6341 39.4294H11.9848L12.8357 36.6161H13.6603C15.9829 36.6207 18.2313 35.7972 20.0026 34.2934C20.9287 33.5275 21.6987 32.5901 22.2704 31.5325C22.4251 31.2746 22.5544 30.9903 22.6828 30.7061C22.8898 30.2426 23.0444 29.7774 23.1729 29.2868C23.332 28.7406 23.4273 28.1777 23.4568 27.6095C23.483 27.3261 23.483 27.0419 23.483 26.7577V8.46123H26.344Z" fill="black"/>
<path d="M33.6909 8.46123H36.5012V16.5382C36.5022 19.648 35.3647 22.6502 33.3039 24.9772C33.5625 23.8928 33.6909 22.7839 33.6909 21.6226V8.46123Z" fill="black"/>
<path d="M19.5635 31.5069C19.5242 31.5463 19.4916 31.5855 19.459 31.6246C19.4273 31.6627 19.3957 31.7007 19.3579 31.7389L19.2801 31.8159C19.2543 31.842 19.2314 31.8681 19.2093 31.8931C19.1657 31.9425 19.1256 31.988 19.074 32.0223L18.9709 32.1255C18.891 32.2094 18.8048 32.2872 18.7132 32.3581C18.6617 32.4097 18.6101 32.4549 18.5586 32.5002C18.5071 32.5454 18.4555 32.5907 18.4039 32.6423C18.3036 32.7423 18.1908 32.829 18.0685 32.9003L17.7592 33.132C17.5015 33.2868 17.2438 33.4416 16.9861 33.571L16.9776 33.5753C16.9281 33.6001 16.8788 33.6248 16.8053 33.648C16.7334 33.6725 16.6837 33.697 16.6354 33.7208L16.6253 33.7258C16.5874 33.7386 16.5557 33.7514 16.5242 33.7641C16.4912 33.7774 16.4585 33.7907 16.4191 33.8036L16.4066 33.8087C16.2815 33.8586 16.1564 33.9085 16.0068 33.9584H15.9806C15.8547 34.0087 15.7296 34.034 15.6037 34.0596L15.5936 34.0616H15.5674C15.5035 34.0747 15.4396 34.0938 15.3757 34.1129C15.311 34.1323 15.2462 34.1516 15.1813 34.1648C15.1353 34.1726 15.0871 34.1826 15.0379 34.1927C14.9218 34.2167 14.8007 34.2418 14.692 34.2418C14.6658 34.2418 14.6401 34.2483 14.6143 34.2549C14.5885 34.2614 14.5627 34.268 14.5365 34.268H14.5112C14.3566 34.2942 14.2273 34.2942 14.0727 34.2942H13.5057L14.3566 31.4809H19.5632L19.5635 31.5069Z" fill="black"/>
<path d="M31.4222 8.46123V21.6226C31.4222 21.829 31.4222 22.0616 31.396 22.268C31.396 22.3712 31.396 22.4744 31.3706 22.5776C31.3706 22.6292 31.3641 22.6808 31.3575 22.7323C31.351 22.7839 31.3444 22.8355 31.3444 22.8871C31.3444 22.9387 31.3381 22.9903 31.3318 23.0419C31.3254 23.0935 31.3191 23.1451 31.3191 23.1967C31.3191 23.2357 31.3125 23.2811 31.3059 23.3264C31.2994 23.3714 31.2929 23.4163 31.2929 23.4547V23.5325C31.281 23.5809 31.2747 23.6292 31.2688 23.6748C31.262 23.7266 31.2557 23.775 31.2422 23.8159C31.2299 23.8643 31.2234 23.9127 31.2172 23.9585C31.2102 24.0103 31.2037 24.0588 31.1898 24.1001V24.1263C31.1771 24.1649 31.1708 24.2035 31.1644 24.2422C31.1581 24.2807 31.1518 24.3193 31.1391 24.3581V24.4105C31.1246 24.4683 31.1101 24.527 31.0954 24.5863C31.0317 24.8439 30.9652 25.1128 30.8814 25.3637C30.868 25.4042 30.8545 25.451 30.8412 25.4975C30.8285 25.5415 30.816 25.5852 30.8037 25.6226C30.7809 25.7212 30.7463 25.8166 30.7006 25.9068C30.685 25.9683 30.6607 26.0205 30.638 26.0691C30.6227 26.102 30.6081 26.1334 30.5975 26.1648C30.5819 26.2263 30.5576 26.2785 30.535 26.3271C30.5196 26.36 30.505 26.3913 30.4944 26.4228C30.4791 26.4832 30.4551 26.5346 30.4327 26.5825C30.4168 26.6164 30.4018 26.6485 30.3913 26.6808C30.3651 26.7577 30.3136 26.8618 30.2621 26.9387C30.2297 27.0296 30.1866 27.1162 30.1336 27.1967C30.1073 27.2359 30.0877 27.2815 30.0683 27.3269C30.0491 27.3718 30.0299 27.4165 30.0043 27.4547C29.9912 27.4939 29.9718 27.5264 29.9524 27.5589C29.9333 27.5909 29.9143 27.6229 29.9013 27.6611C29.8251 27.8129 29.739 27.9596 29.6435 28.1001C29.5722 28.2241 29.4949 28.3446 29.412 28.4613C29.367 28.557 29.3058 28.6443 29.2312 28.7192C29.205 28.7717 29.1543 28.8224 29.1281 28.8487L29.0892 28.9014C29.0318 28.9793 28.9852 29.0427 28.922 29.1066C28.8983 29.1381 28.8746 29.1671 28.8518 29.1952C28.7997 29.2592 28.7516 29.3183 28.7158 29.39L28.2519 29.9322L28.3288 29.6226C28.3419 29.5837 28.3485 29.545 28.355 29.5063C28.3616 29.4676 28.3681 29.4289 28.3812 29.39V29.313C28.3939 29.2614 28.4002 29.2098 28.4065 29.1582C28.4129 29.1066 28.4192 29.0551 28.4319 29.0035L28.4325 29.0003C28.4585 28.8719 28.4843 28.7446 28.4843 28.6423C28.4843 28.5994 28.492 28.5568 28.4989 28.5185C28.5045 28.4873 28.5096 28.4591 28.5096 28.4359C28.5096 28.397 28.5162 28.3646 28.5227 28.3323C28.5293 28.2999 28.5358 28.2676 28.5358 28.2286C28.5491 28.1611 28.5555 28.0933 28.5621 28.0218C28.5682 27.9571 28.5745 27.8894 28.5865 27.8159V27.7127C28.5865 27.6611 28.5931 27.616 28.5996 27.571C28.6062 27.526 28.6127 27.4809 28.6127 27.4293V8.46123H31.4222Z" fill="black"/>
<path d="M21.2658 26.706V26.448H15.8775L15.0266 29.2613H20.8273C20.9021 29.0852 20.9529 28.885 21.0039 28.6841L21.0081 28.6675C21.1364 28.2553 21.1879 27.8169 21.2394 27.3793L21.2396 27.3776C21.2658 27.1713 21.2658 26.9386 21.2658 26.706Z" fill="black"/>
<defs>
<filter id="filter0_f_4_156" x="-2.38419e-06" y="5.24521e-06" width="53.2603" height="45.0411" filterUnits="userSpaceOnUse" color-interpolation-filters="sRGB">
<feFlood flood-opacity="0" result="BackgroundImageFix"/>
<feBlend mode="normal" in="SourceGraphic" in2="BackgroundImageFix" result="shape"/>
<feGaussianBlur stdDeviation="1.31507" result="effect1_foregroundBlur_4_156"/>
</filter>
<clipPath id="paint0_angular_4_156_clip_path"><path d="M6.90411 14.7945C8.87671 9.53425 2.63013 2.63014 2.63013 2.63014L47.0137 28.6027C47.0137 28.6027 45.8285 31.1548 46.3562 33.2055C47.2176 36.5535 50.6301 42.411 50.6301 42.411C50.6301 42.411 16.1096 21.3699 6.90411 14.7945Z"/></clipPath></defs>
</svg>
